<svg xmlns="http://www.w3.org/2000/svg" version="1.1" xmlns:xlink="http://www.w3.org/1999/xlink" xmlns:svgjs="http://svgjs.dev/svgjs" width="1440" height="560" preserveAspectRatio="none" viewBox="0 0 1440 560"><g mask="url(&quot;#SvgjsMask1017&quot;)" fill="none"><path d="M1512 560L0 560 L0 329.87Q57.03 266.9, 120 323.94Q188.49 272.43, 240 340.92Q306.8 287.72, 360 354.52Q403.01 325.53, 432 368.54Q464.44 280.98, 552 313.42Q602.83 292.25, 624 343.07Q636.83 283.9, 696 296.74Q748.65 229.39, 816 282.04Q873.12 267.16, 888 324.28Q941.67 305.95, 960 359.63Q984.09 311.72, 1032 335.81Q1072.89 256.7, 1152 297.59Q1197.64 271.24, 1224 316.88Q1289.1 309.98, 1296 375.08Q1321.91 328.99, 1368 354.9Q1396.49 311.38, 1440 339.87Q1469.12 296.99, 1512 326.1z" fill="rgba(48, 98, 171, 1)"></path><path d="M1536 560L0 560 L0 376.65Q60.21 364.86, 72 425.07Q74.57 355.64, 144 358.22Q209.82 304.05, 264 369.87Q333.42 319.29, 384 388.71Q427.83 312.54, 504 356.37Q547.74 328.11, 576 371.84Q655.26 331.1, 696 410.36Q748.45 342.81, 816 395.27Q844.69 351.95, 888 380.64Q915.22 335.86, 960 363.07Q1043.03 326.1, 1080 409.12Q1124.76 333.88, 1200 378.63Q1245.88 352.5, 1272 398.38Q1325.86 380.24, 1344 434.09Q1372.17 390.26, 1416 418.44Q1447.71 330.15, 1536 361.87z" fill="rgba(82, 115, 171, 1)"></path><path d="M1536 560L0 560 L0 469.93Q53.51 451.44, 72 504.96Q103.42 416.38, 192 447.8Q262.52 398.32, 312 468.84Q381.49 418.33, 432 487.82Q462.61 398.43, 552 429.04Q631.79 388.83, 672 468.61Q695.95 420.56, 744 444.51Q834.39 414.9, 864 505.29Q913.27 434.56, 984 483.84Q1008.15 435.99, 1056 460.14Q1121.7 405.84, 1176 471.54Q1253.32 428.86, 1296 506.17Q1328.09 418.25, 1416 450.34Q1468.72 383.06, 1536 435.78z" fill="rgba(89, 143, 211, 1)"></path><path d="M1464 560L0 560 L0 545.13Q27.77 500.9, 72 528.68Q117.19 453.87, 192 499.05Q258.96 446.01, 312 512.97Q369.39 498.37, 384 555.76Q427.75 479.51, 504 523.27Q572.49 471.75, 624 540.24Q683.69 527.93, 696 587.62Q701.77 521.39, 768 527.17Q817.27 456.44, 888 505.72Q951.16 496.88, 960 560.04Q1012.88 492.92, 1080 545.81Q1090.88 484.69, 1152 495.58Q1218.28 441.86, 1272 508.13Q1341 457.13, 1392 526.13Q1450.54 512.67, 1464 571.21z" fill="white"></path></g><defs><mask id="SvgjsMask1017"><rect width="1440" height="560" fill="#ffffff"></rect></mask></defs></svg>